<?xml version="1.0" encoding="UTF-8"?>
<!DOCTYPE svg PUBLIC "-//W3C//DTD SVG 1.1//EN" "http://www.w3.org/Graphics/SVG/1.1/DTD/svg11.dtd">
<svg xmlns="http://www.w3.org/2000/svg" version="1.1" width="120px" height="120px" style="shape-rendering:geometricPrecision; text-rendering:geometricPrecision; image-rendering:optimizeQuality; fill-rule:evenodd; clip-rule:evenodd" xmlns:xlink="http://www.w3.org/1999/xlink">
<g><path style="opacity:1" fill="#797e68" d="M 84.5,20.5 C 84.5569,21.609 84.8902,22.609 85.5,23.5C 84.6618,23.8417 84.3284,24.5084 84.5,25.5C 82.0907,25.3712 79.7574,25.3712 77.5,25.5C 79.2842,23.483 81.2842,21.8163 83.5,20.5C 83.8333,19.1667 84.1667,19.1667 84.5,20.5 Z"/></g>
<g><path style="opacity:1" fill="#c8d49a" d="M 85.5,23.5 C 86.9931,24.3121 87.6598,25.6455 87.5,27.5C 87.3601,29.0296 86.6935,30.0296 85.5,30.5C 85.634,28.7085 85.3007,27.0418 84.5,25.5C 84.3284,24.5084 84.6618,23.8417 85.5,23.5 Z"/></g>
<g><path style="opacity:1" fill="#989c83" d="M 85.5,30.5 C 85.9528,31.4584 86.6195,32.2917 87.5,33C 84.2538,32.6835 80.9205,32.5168 77.5,32.5C 76.1667,32.5 74.8333,32.5 73.5,32.5C 73.5,31.5 73.5,30.5 73.5,29.5C 77.6398,28.1011 81.6398,28.4345 85.5,30.5 Z"/></g>
<g><path style="opacity:0.984" fill="#1a1918" d="M 54.5,29.5 C 53.8519,31.0858 53.3519,32.7525 53,34.5C 51.2435,33.015 50.0768,33.3484 49.5,35.5C 48.1667,36.1667 47.1667,37.1667 46.5,38.5C 45.6618,38.8417 45.3284,39.5084 45.5,40.5C 44.5084,40.6716 43.8417,40.3382 43.5,39.5C 45.3031,37.5187 46.9697,35.352 48.5,33C 50.6045,31.8695 52.6045,30.7028 54.5,29.5 Z"/></g>
<g><path style="opacity:1" fill="#2b2726" d="M 84.5,20.5 C 86.4788,21.8121 88.1455,23.4788 89.5,25.5C 88.7525,28.407 88.4192,31.2403 88.5,34C 91.6592,34.0114 94.4926,34.8447 97,36.5C 97.8,42.465 98.3,48.1316 98.5,53.5C 96.3926,54.4682 94.0593,54.8016 91.5,54.5C 85.2504,52.5411 78.5837,51.8745 71.5,52.5C 73.9479,51.5269 76.6146,51.1936 79.5,51.5C 81.1667,51.5 82.8333,51.5 84.5,51.5C 88.5,51.5 92.5,51.5 96.5,51.5C 96.6658,46.8215 96.4992,42.1548 96,37.5C 95.3292,36.7476 94.4959,36.4142 93.5,36.5C 92.4324,35.5655 91.099,35.2322 89.5,35.5C 87.5,35.5 85.5,35.5 83.5,35.5C 83.1667,35.5 82.8333,35.5 82.5,35.5C 80.7354,34.5386 78.7354,34.2053 76.5,34.5C 76.8333,33.8333 77.1667,33.1667 77.5,32.5C 80.9205,32.5168 84.2538,32.6835 87.5,33C 86.6195,32.2917 85.9528,31.4584 85.5,30.5C 86.6935,30.0296 87.3601,29.0296 87.5,27.5C 87.6598,25.6455 86.9931,24.3121 85.5,23.5C 84.8902,22.609 84.5569,21.609 84.5,20.5 Z"/></g>
<g><path style="opacity:1" fill="#4a4a40" d="M 58.5,29.5 C 58.5,30.5 58.5,31.5 58.5,32.5C 57.0222,32.238 55.6888,32.5713 54.5,33.5C 54.7093,34.086 55.0426,34.586 55.5,35C 53.5273,35.4955 51.5273,35.6621 49.5,35.5C 50.0768,33.3484 51.2435,33.015 53,34.5C 53.3519,32.7525 53.8519,31.0858 54.5,29.5C 55.7054,28.3143 57.0387,28.3143 58.5,29.5 Z"/></g>
<g><path style="opacity:0.647" fill="#34362e" d="M 70.5,29.5 C 69.1103,31.1694 68.7769,32.8361 69.5,34.5C 65.4975,34.9643 61.8309,34.2976 58.5,32.5C 58.5,31.5 58.5,30.5 58.5,29.5C 59.2216,29.9175 59.7216,30.5842 60,31.5C 59.7096,27.9106 61.2096,26.4106 64.5,27C 65.2638,29.0693 65.7638,31.236 66,33.5C 66.8763,31.3645 68.3763,30.0312 70.5,29.5 Z"/></g>
<g><path style="opacity:1" fill="#35322d" d="M 83.5,20.5 C 81.2842,21.8163 79.2842,23.483 77.5,25.5C 79.7574,25.3712 82.0907,25.3712 84.5,25.5C 85.3007,27.0418 85.634,28.7085 85.5,30.5C 81.6398,28.4345 77.6398,28.1011 73.5,29.5C 73.5,30.5 73.5,31.5 73.5,32.5C 74.8333,32.5 76.1667,32.5 77.5,32.5C 77.1667,33.1667 76.8333,33.8333 76.5,34.5C 74.1667,34.5 71.8333,34.5 69.5,34.5C 68.7769,32.8361 69.1103,31.1694 70.5,29.5C 71.7804,28.0687 73.4471,27.4021 75.5,27.5C 75.6728,22.4237 78.3395,20.0903 83.5,20.5 Z"/></g>
<g><path style="opacity:1" fill="#7f8171" d="M 58.5,32.5 C 61.8309,34.2976 65.4975,34.9643 69.5,34.5C 71.8333,34.5 74.1667,34.5 76.5,34.5C 78.7354,34.2053 80.7354,34.5386 82.5,35.5C 80.8333,35.5 79.1667,35.5 77.5,35.5C 77.6741,37.861 78.0074,40.1944 78.5,42.5C 78.6495,43.552 78.4828,44.552 78,45.5C 77.3405,42.322 76.5072,39.322 75.5,36.5C 72.3752,35.5206 69.0419,35.1872 65.5,35.5C 62.6146,35.1936 59.9479,35.5269 57.5,36.5C 53.5559,36.1134 49.8892,36.78 46.5,38.5C 47.1667,37.1667 48.1667,36.1667 49.5,35.5C 51.5273,35.6621 53.5273,35.4955 55.5,35C 55.0426,34.586 54.7093,34.086 54.5,33.5C 55.6888,32.5713 57.0222,32.238 58.5,32.5 Z"/></g>
<g><path style="opacity:0.61" fill="#20201e" d="M 43.5,39.5 C 42.391,39.5569 41.391,39.8902 40.5,40.5C 34.1455,40.0207 27.8121,39.3541 21.5,38.5C 19.3926,37.5318 17.0593,37.1984 14.5,37.5C 13.5,37.5 12.5,37.5 11.5,37.5C 11.1667,37.5 10.8333,37.5 10.5,37.5C 8.73339,36.7435 6.90006,36.0769 5,35.5C 3.05031,35.7074 1.88364,36.7074 1.5,38.5C 0.596028,39.209 0.262695,40.209 0.5,41.5C 0.166667,41.5 -0.166667,41.5 -0.5,41.5C -0.5,40.1667 -0.5,38.8333 -0.5,37.5C 0.898353,35.4672 2.89835,34.4672 5.5,34.5C 15.4343,36.1623 25.4343,37.4956 35.5,38.5C 38.5667,37.1978 41.2334,37.5311 43.5,39.5 Z"/></g>
<g><path style="opacity:1" fill="#a0b781" d="M 65.5,35.5 C 69.0419,35.1872 72.3752,35.5206 75.5,36.5C 72.5,36.1667 71.1667,37.5 71.5,40.5C 70.9759,42.3057 70.3092,43.9724 69.5,45.5C 68.8333,45.1667 68.1667,44.8333 67.5,44.5C 66.8333,41.5 66.1667,38.5 65.5,35.5 Z"/></g>
<g><path style="opacity:1" fill="#929f77" d="M 82.5,35.5 C 82.8333,35.5 83.1667,35.5 83.5,35.5C 84.5145,36.7647 86.0145,37.4313 88,37.5C 89.5,37.3333 91,37.1667 92.5,37C 91.2625,36.7679 90.2625,36.2679 89.5,35.5C 91.099,35.2322 92.4324,35.5655 93.5,36.5C 94.8333,39.8333 93.8333,40.8333 90.5,39.5C 88.6112,38.2584 86.6112,38.2584 84.5,39.5C 82.7078,38.6909 80.7078,38.1909 78.5,38C 80.3197,37.7996 81.653,36.9663 82.5,35.5 Z"/></g>
<g><path style="opacity:1" fill="#dce8b0" d="M 83.5,35.5 C 85.5,35.5 87.5,35.5 89.5,35.5C 90.2625,36.2679 91.2625,36.7679 92.5,37C 91,37.1667 89.5,37.3333 88,37.5C 86.0145,37.4313 84.5145,36.7647 83.5,35.5 Z"/></g>
<g><path style="opacity:1" fill="#4b4d3f" d="M 57.5,36.5 C 60.7322,36.7717 62.7322,38.4384 63.5,41.5C 62.078,40.075 60.4113,39.075 58.5,38.5C 56.0336,37.3659 53.367,37.1993 50.5,38C 54.0047,38.2463 56.6714,39.7463 58.5,42.5C 58.6621,44.5273 58.4955,46.5273 58,48.5C 57.5811,44.1482 56.9145,43.8149 56,47.5C 55.5291,45.7536 54.8624,44.087 54,42.5C 53.7638,44.764 53.2638,46.9307 52.5,49C 53.1667,49.3333 53.8333,49.6667 54.5,50C 52.2533,51.6548 49.9199,51.9881 47.5,51C 50.991,52.3369 54.6577,53.1703 58.5,53.5C 55.4925,53.9586 52.4925,54.2919 49.5,54.5C 47.3736,53.9518 45.3736,53.2852 43.5,52.5C 44.552,52.6495 45.552,52.4828 46.5,52C 45.33,50.2453 43.6633,49.2453 41.5,49C 42.0442,48.2828 42.7109,47.7828 43.5,47.5C 45.9664,48.6341 48.633,48.8007 51.5,48C 52.2524,47.3292 52.5858,46.4959 52.5,45.5C 51.8876,42.3027 49.8876,40.9694 46.5,41.5C 46.5,40.8333 46.1667,40.5 45.5,40.5C 45.3284,39.5084 45.6618,38.8417 46.5,38.5C 49.8892,36.78 53.5559,36.1134 57.5,36.5 Z"/></g>
<g><path style="opacity:1" fill="#959d7d" d="M 58.5,38.5 C 58.8333,39.1667 59.1667,39.8333 59.5,40.5C 58.6618,40.8417 58.3284,41.5084 58.5,42.5C 56.6714,39.7463 54.0047,38.2463 50.5,38C 53.367,37.1993 56.0336,37.3659 58.5,38.5 Z"/></g>
<g><path style="opacity:1" fill="#b2c98c" d="M 82.5,35.5 C 81.653,36.9663 80.3197,37.7996 78.5,38C 80.7078,38.1909 82.7078,38.6909 84.5,39.5C 83.2035,40.8488 83.3702,42.1821 85,43.5C 86.3561,42.6198 87.8561,42.2865 89.5,42.5C 87.9236,43.1429 86.5903,44.1429 85.5,45.5C 86.0483,48.0838 87.715,49.0838 90.5,48.5C 88.2488,49.0149 86.2488,50.0149 84.5,51.5C 82.8333,51.5 81.1667,51.5 79.5,51.5C 79.81,48.2869 79.4767,45.2869 78.5,42.5C 78.0074,40.1944 77.6741,37.861 77.5,35.5C 79.1667,35.5 80.8333,35.5 82.5,35.5 Z"/></g>
<g><path style="opacity:1" fill="#515046" d="M 90.5,39.5 C 90.7373,40.791 90.404,41.791 89.5,42.5C 87.8561,42.2865 86.3561,42.6198 85,43.5C 83.3702,42.1821 83.2035,40.8488 84.5,39.5C 86.6112,38.2584 88.6112,38.2584 90.5,39.5 Z"/></g>
<g><path style="opacity:1" fill="#21151b" d="M 2.5,43.5 C 1.69929,41.9582 1.36596,40.2915 1.5,38.5C 5.07094,37.2432 6.23761,38.5765 5,42.5C 4.32924,43.2524 3.4959,43.5858 2.5,43.5 Z"/></g>
<g><path style="opacity:1" fill="#b1c290" d="M 10.5,37.5 C 10.5076,43.2076 10.0076,43.5409 9,38.5C 8.88322,42.7851 6.71656,44.7851 2.5,44.5C 2.5,44.1667 2.5,43.8333 2.5,43.5C 3.4959,43.5858 4.32924,43.2524 5,42.5C 6.23761,38.5765 5.07094,37.2432 1.5,38.5C 1.88364,36.7074 3.05031,35.7074 5,35.5C 6.90006,36.0769 8.73339,36.7435 10.5,37.5 Z"/></g>
<g><path style="opacity:1" fill="#f4f4cc" d="M 58.5,38.5 C 60.4113,39.075 62.078,40.075 63.5,41.5C 63.5,43.1667 63.5,44.8333 63.5,46.5C 62.5041,46.5858 61.6708,46.2524 61,45.5C 60.6481,43.7525 60.1481,42.0858 59.5,40.5C 59.1667,39.8333 58.8333,39.1667 58.5,38.5 Z"/></g>
<g><path style="opacity:1" fill="#6e705c" d="M 1.5,38.5 C 1.36596,40.2915 1.69929,41.9582 2.5,43.5C 2.5,43.8333 2.5,44.1667 2.5,44.5C 1.09368,44.0269 0.427017,43.0269 0.5,41.5C 0.262695,40.209 0.596028,39.209 1.5,38.5 Z"/></g>
<g><path style="opacity:1" fill="#6c755b" d="M 10.5,37.5 C 10.8333,37.5 11.1667,37.5 11.5,37.5C 12.1634,40.423 13.8301,41.0897 16.5,39.5C 15.7573,38.8182 15.0906,38.1515 14.5,37.5C 17.0593,37.1984 19.3926,37.5318 21.5,38.5C 19.4524,38.1596 18.4524,38.4929 18.5,39.5C 18.5,40.8333 18.5,42.1667 18.5,43.5C 18.0618,43.4346 17.7284,43.6012 17.5,44C 18.4158,44.2784 19.0825,44.7784 19.5,45.5C 16.2521,45.0986 13.0854,44.432 10,43.5C 7.64312,45.6458 5.14312,45.9791 2.5,44.5C 6.71656,44.7851 8.88322,42.7851 9,38.5C 10.0076,43.5409 10.5076,43.2076 10.5,37.5 Z"/></g>
<g><path style="opacity:1" fill="#d0dba8" d="M 11.5,37.5 C 12.5,37.5 13.5,37.5 14.5,37.5C 15.0906,38.1515 15.7573,38.8182 16.5,39.5C 13.8301,41.0897 12.1634,40.423 11.5,37.5 Z"/></g>
<g><path style="opacity:1" fill="#e9f1b8" d="M 21.5,38.5 C 27.8121,39.3541 34.1455,40.0207 40.5,40.5C 40.5,40.8333 40.5,41.1667 40.5,41.5C 39.3784,42.1558 38.0451,42.4892 36.5,42.5C 30.6044,40.8592 24.6044,39.8592 18.5,39.5C 18.4524,38.4929 19.4524,38.1596 21.5,38.5 Z"/></g>
<g><path style="opacity:1" fill="#b6cf8e" d="M 18.5,39.5 C 24.6044,39.8592 30.6044,40.8592 36.5,42.5C 38.0451,42.4892 39.3784,42.1558 40.5,41.5C 41.3543,42.6316 41.3543,43.965 40.5,45.5C 33.2641,44.2967 25.9308,43.6301 18.5,43.5C 18.5,42.1667 18.5,40.8333 18.5,39.5 Z"/></g>
<g><path style="opacity:1" fill="#d3e3a5" d="M 44.5,42.5 C 44.8417,41.6618 45.5084,41.3284 46.5,41.5C 49.8876,40.9694 51.8876,42.3027 52.5,45.5C 50.1667,45.5 47.8333,45.5 45.5,45.5C 45.7373,44.209 45.404,43.209 44.5,42.5 Z"/></g>
<g><path style="opacity:1" fill="#7d8c69" d="M 18.5,43.5 C 25.9308,43.6301 33.2641,44.2967 40.5,45.5C 40.1667,46.1667 39.8333,46.8333 39.5,47.5C 38.1667,47.5 36.8333,47.5 35.5,47.5C 30.1241,47.051 24.7908,46.3844 19.5,45.5C 19.0825,44.7784 18.4158,44.2784 17.5,44C 17.7284,43.6012 18.0618,43.4346 18.5,43.5 Z"/></g>
<g><path style="opacity:0.827" fill="#191918" d="M -0.5,41.5 C -0.166667,41.5 0.166667,41.5 0.5,41.5C 0.427017,43.0269 1.09368,44.0269 2.5,44.5C 5.14312,45.9791 7.64312,45.6458 10,43.5C 13.0854,44.432 16.2521,45.0986 19.5,45.5C 24.7908,46.3844 30.1241,47.051 35.5,47.5C 35.5,47.8333 35.5,48.1667 35.5,48.5C 27.057,48.3027 18.7236,47.3027 10.5,45.5C 6.57866,47.0492 2.91199,46.7159 -0.5,44.5C -0.5,43.5 -0.5,42.5 -0.5,41.5 Z"/></g>
<g><path style="opacity:1" fill="#6f7361" d="M 43.5,39.5 C 43.8417,40.3382 44.5084,40.6716 45.5,40.5C 46.1667,40.5 46.5,40.8333 46.5,41.5C 45.5084,41.3284 44.8417,41.6618 44.5,42.5C 44.7845,44.4147 44.4511,46.0813 43.5,47.5C 42.7109,47.7828 42.0442,48.2828 41.5,49C 43.6633,49.2453 45.33,50.2453 46.5,52C 45.552,52.4828 44.552,52.6495 43.5,52.5C 42.5,52.5 41.5,52.5 40.5,52.5C 40.7845,50.5853 40.4511,48.9187 39.5,47.5C 39.8333,46.8333 40.1667,46.1667 40.5,45.5C 41.3543,43.965 41.3543,42.6316 40.5,41.5C 40.5,41.1667 40.5,40.8333 40.5,40.5C 41.391,39.8902 42.391,39.5569 43.5,39.5 Z"/></g>
<g><path style="opacity:1" fill="#7c8d68" d="M 71.5,40.5 C 72.4959,40.4142 73.3292,40.7476 74,41.5C 73.932,43.3423 74.0986,45.009 74.5,46.5C 74.6309,47.3764 74.2975,48.0431 73.5,48.5C 72.8182,47.7573 72.1515,47.0906 71.5,46.5C 70.0755,48.0311 69.4088,47.6977 69.5,45.5C 70.3092,43.9724 70.9759,42.3057 71.5,40.5 Z"/></g>
<g><path style="opacity:1" fill="#a9bf87" d="M 75.5,36.5 C 76.5072,39.322 77.3405,42.322 78,45.5C 78.4828,44.552 78.6495,43.552 78.5,42.5C 79.4767,45.2869 79.81,48.2869 79.5,51.5C 76.6146,51.1936 73.9479,51.5269 71.5,52.5C 70.5,52.5 69.5,52.5 68.5,52.5C 68.4249,49.7938 68.0916,47.1272 67.5,44.5C 68.1667,44.8333 68.8333,45.1667 69.5,45.5C 69.4088,47.6977 70.0755,48.0311 71.5,46.5C 71.5,47.5 71.5,48.5 71.5,49.5C 72.8333,49.5 74.1667,49.5 75.5,49.5C 75.7373,48.209 75.404,47.209 74.5,46.5C 74.0986,45.009 73.932,43.3423 74,41.5C 73.3292,40.7476 72.4959,40.4142 71.5,40.5C 71.1667,37.5 72.5,36.1667 75.5,36.5 Z"/></g>
<g><path style="opacity:1" fill="#83926e" d="M 44.5,42.5 C 45.404,43.209 45.7373,44.209 45.5,45.5C 47.8333,45.5 50.1667,45.5 52.5,45.5C 52.5858,46.4959 52.2524,47.3292 51.5,48C 48.633,48.8007 45.9664,48.6341 43.5,47.5C 44.4511,46.0813 44.7845,44.4147 44.5,42.5 Z"/></g>
<g><path style="opacity:1" fill="#515146" d="M 85.5,45.5 C 88.1667,45.5 90.8333,45.5 93.5,45.5C 93.5,46.5 93.5,47.5 93.5,48.5C 92.5,48.5 91.5,48.5 90.5,48.5C 87.715,49.0838 86.0483,48.0838 85.5,45.5 Z"/></g>
<g><path style="opacity:1" fill="#737a60" d="M 59.5,40.5 C 60.1481,42.0858 60.6481,43.7525 61,45.5C 61.6708,46.2524 62.5041,46.5858 63.5,46.5C 62.4314,48.9687 61.0981,51.3021 59.5,53.5C 59.1667,53.5 58.8333,53.5 58.5,53.5C 54.6577,53.1703 50.991,52.3369 47.5,51C 49.9199,51.9881 52.2533,51.6548 54.5,50C 53.8333,49.6667 53.1667,49.3333 52.5,49C 53.2638,46.9307 53.7638,44.764 54,42.5C 54.8624,44.087 55.5291,45.7536 56,47.5C 56.9145,43.8149 57.5811,44.1482 58,48.5C 58.4955,46.5273 58.6621,44.5273 58.5,42.5C 58.3284,41.5084 58.6618,40.8417 59.5,40.5 Z"/></g>
<g><path style="opacity:1" fill="#49523f" d="M 71.5,46.5 C 72.1515,47.0906 72.8182,47.7573 73.5,48.5C 74.2975,48.0431 74.6309,47.3764 74.5,46.5C 75.404,47.209 75.7373,48.209 75.5,49.5C 74.1667,49.5 72.8333,49.5 71.5,49.5C 71.5,48.5 71.5,47.5 71.5,46.5 Z"/></g>
<g><path style="opacity:1" fill="#eaf0b9" d="M 93.5,36.5 C 94.4959,36.4142 95.3292,36.7476 96,37.5C 96.4992,42.1548 96.6658,46.8215 96.5,51.5C 92.5,51.5 88.5,51.5 84.5,51.5C 86.2488,50.0149 88.2488,49.0149 90.5,48.5C 91.5,48.5 92.5,48.5 93.5,48.5C 93.5,47.5 93.5,46.5 93.5,45.5C 90.8333,45.5 88.1667,45.5 85.5,45.5C 86.5903,44.1429 87.9236,43.1429 89.5,42.5C 90.404,41.791 90.7373,40.791 90.5,39.5C 93.8333,40.8333 94.8333,39.8333 93.5,36.5 Z"/></g>
<g><path style="opacity:1" fill="#7b8367" d="M 57.5,36.5 C 59.9479,35.5269 62.6146,35.1936 65.5,35.5C 66.1667,38.5 66.8333,41.5 67.5,44.5C 68.0916,47.1272 68.4249,49.7938 68.5,52.5C 68.1667,52.5 67.8333,52.5 67.5,52.5C 66.6851,51.5707 65.8518,50.5707 65,49.5C 64.8171,46.6353 64.3171,43.9686 63.5,41.5C 62.7322,38.4384 60.7322,36.7717 57.5,36.5 Z"/></g>
<g><path style="opacity:0.459" fill="#32312e" d="M 119.5,67.5 C 119.5,68.1667 119.5,68.8333 119.5,69.5C 118.833,69.1667 118.167,68.8333 117.5,68.5C 117.167,67.8333 116.833,67.1667 116.5,66.5C 114.735,65.5386 112.735,65.2053 110.5,65.5C 111.398,64.8423 112.398,64.1757 113.5,63.5C 111.044,62.8471 108.71,62.5137 106.5,62.5C 106.5,62.1667 106.5,61.8333 106.5,61.5C 106.739,59.5328 106.406,57.6995 105.5,56C 100.177,55.5006 94.8437,55.334 89.5,55.5C 89.8417,54.6618 90.5084,54.3284 91.5,54.5C 94.0593,54.8016 96.3926,54.4682 98.5,53.5C 100.479,50.9014 102.479,48.2347 104.5,45.5C 105.325,44.6143 106.325,44.281 107.5,44.5C 106.688,47.5878 105.355,50.4212 103.5,53C 106.272,54.8602 108.605,57.1935 110.5,60C 111.938,60.2189 113.271,60.7189 114.5,61.5C 115.843,63.8366 117.51,65.8366 119.5,67.5 Z"/></g>
<g><path style="opacity:1" fill="#3f3e38" d="M 63.5,41.5 C 64.3171,43.9686 64.8171,46.6353 65,49.5C 65.8518,50.5707 66.6851,51.5707 67.5,52.5C 64.9356,53.8815 62.2689,54.2149 59.5,53.5C 61.0981,51.3021 62.4314,48.9687 63.5,46.5C 63.5,44.8333 63.5,43.1667 63.5,41.5 Z"/></g>
<g><path style="opacity:0.869" fill="#242020" d="M 35.5,47.5 C 36.8333,47.5 38.1667,47.5 39.5,47.5C 40.4511,48.9187 40.7845,50.5853 40.5,52.5C 41.5,52.5 42.5,52.5 43.5,52.5C 45.3736,53.2852 47.3736,53.9518 49.5,54.5C 50.791,54.2627 51.791,54.596 52.5,55.5C 50.3792,55.3253 48.3792,55.6586 46.5,56.5C 44.2646,56.2053 42.2646,56.5386 40.5,57.5C 40.1667,57.5 39.8333,57.5 39.5,57.5C 37.7354,56.5386 35.7354,56.2053 33.5,56.5C 36.3054,55.6805 39.3054,55.1805 42.5,55C 41.552,54.5172 40.552,54.3505 39.5,54.5C 39.762,53.0222 39.4287,51.6888 38.5,50.5C 37.2613,50.0576 36.2613,49.3909 35.5,48.5C 35.5,48.1667 35.5,47.8333 35.5,47.5 Z"/></g>
<g><path style="opacity:1" fill="#271a22" d="M 67.5,52.5 C 67.8333,52.5 68.1667,52.5 68.5,52.5C 69.5,52.5 70.5,52.5 71.5,52.5C 78.5837,51.8745 85.2504,52.5411 91.5,54.5C 90.5084,54.3284 89.8417,54.6618 89.5,55.5C 87.8333,55.5 86.1667,55.5 84.5,55.5C 83.1667,55.5 81.8333,55.5 80.5,55.5C 74.8333,55.5 69.1667,55.5 63.5,55.5C 59.8333,55.5 56.1667,55.5 52.5,55.5C 51.791,54.596 50.791,54.2627 49.5,54.5C 52.4925,54.2919 55.4925,53.9586 58.5,53.5C 58.8333,53.5 59.1667,53.5 59.5,53.5C 62.2689,54.2149 64.9356,53.8815 67.5,52.5 Z"/></g>
<g><path style="opacity:1" fill="#4f4d42" d="M 52.5,55.5 C 56.1667,55.5 59.8333,55.5 63.5,55.5C 63.5,55.8333 63.5,56.1667 63.5,56.5C 63.5,57.1667 63.5,57.8333 63.5,58.5C 62.8444,57.7222 62.0111,57.0556 61,56.5C 59.9701,56.8361 59.4701,57.5028 59.5,58.5C 58.1667,58.5 56.8333,58.5 55.5,58.5C 51.9878,59.0545 48.9878,58.3878 46.5,56.5C 48.3792,55.6586 50.3792,55.3253 52.5,55.5 Z"/></g>
<g><path style="opacity:1" fill="#a4bb84" d="M 80.5,55.5 C 81.8333,55.5 83.1667,55.5 84.5,55.5C 86.6074,56.4682 88.9407,56.8016 91.5,56.5C 91.1667,57.1667 90.8333,57.8333 90.5,58.5C 85.4583,59.2917 80.4583,60.2917 75.5,61.5C 75.7135,59.8561 75.3802,58.3561 74.5,57C 76.7078,56.8091 78.7078,56.3091 80.5,55.5 Z"/></g>
<g><path style="opacity:0.859" fill="#33322e" d="M 33.5,56.5 C 35.7354,56.2053 37.7354,56.5386 39.5,57.5C 38.5,59.1667 37.1667,60.5 35.5,61.5C 34.7109,61.2172 34.0442,60.7172 33.5,60C 38.8114,57.8955 38.4781,57.2288 32.5,58C 31.4168,60.0559 29.7501,61.3892 27.5,62C 29.5,62.3333 31.5,62.6667 33.5,63C 32.6266,64.045 31.6266,64.8783 30.5,65.5C 29.8106,64.2264 28.9772,64.2264 28,65.5C 26.9745,62.3072 24.8078,60.9738 21.5,61.5C 22.9516,60.6981 24.6183,60.1981 26.5,60C 23.8953,58.0692 23.8953,56.2358 26.5,54.5C 27.8524,55.5175 28.8524,56.8508 29.5,58.5C 30.6223,57.3698 31.9557,56.7031 33.5,56.5 Z"/></g>
<g><path style="opacity:1" fill="#787d68" d="M 40.5,57.5 C 42.2646,56.5386 44.2646,56.2053 46.5,56.5C 48.9878,58.3878 51.9878,59.0545 55.5,58.5C 56.5112,62.223 57.8445,62.223 59.5,58.5C 59.4701,57.5028 59.9701,56.8361 61,56.5C 62.0111,57.0556 62.8444,57.7222 63.5,58.5C 62.5,59.8333 61.5,61.1667 60.5,62.5C 60.5,62.8333 60.5,63.1667 60.5,63.5C 59.8902,64.391 59.5569,65.391 59.5,66.5C 58.8333,66.5 58.5,66.1667 58.5,65.5C 58.1898,63.8564 57.1898,62.8564 55.5,62.5C 54.3588,61.661 53.0255,60.9943 51.5,60.5C 49.8333,61.8333 48.1667,61.8333 46.5,60.5C 45.1667,61.1667 43.8333,61.8333 42.5,62.5C 41.676,60.2524 40.676,60.0858 39.5,62C 40.263,62.9435 41.263,63.4435 42.5,63.5C 45.1147,62.7308 47.7814,62.3975 50.5,62.5C 46.7409,64.1962 42.7409,65.0296 38.5,65C 37.6919,64.6924 37.0253,64.1924 36.5,63.5C 37.982,61.5171 39.6487,59.6837 41.5,58C 41.2716,57.6012 40.9382,57.4346 40.5,57.5 Z"/></g>
<g><path style="opacity:1" fill="#c8d59d" d="M 55.5,58.5 C 56.8333,58.5 58.1667,58.5 59.5,58.5C 57.8445,62.223 56.5112,62.223 55.5,58.5 Z"/></g>
<g><path style="opacity:1" fill="#dde4b1" d="M 84.5,55.5 C 86.1667,55.5 87.8333,55.5 89.5,55.5C 94.8437,55.334 100.177,55.5006 105.5,56C 106.406,57.6995 106.739,59.5328 106.5,61.5C 102.476,62.0381 98.4764,62.7048 94.5,63.5C 94.6621,61.4727 94.4955,59.4727 94,57.5C 93.3292,56.7476 92.4959,56.4142 91.5,56.5C 88.9407,56.8016 86.6074,56.4682 84.5,55.5 Z"/></g>
<g><path style="opacity:1" fill="#dfe6b4" d="M 63.5,56.5 C 64.8734,56.3433 66.2068,56.51 67.5,57C 65.6266,58.7038 63.9599,60.5372 62.5,62.5C 61.8333,62.5 61.1667,62.5 60.5,62.5C 61.5,61.1667 62.5,59.8333 63.5,58.5C 63.5,57.8333 63.5,57.1667 63.5,56.5 Z"/></g>
<g><path style="opacity:1" fill="#778065" d="M 63.5,56.5 C 63.5,56.1667 63.5,55.8333 63.5,55.5C 69.1667,55.5 74.8333,55.5 80.5,55.5C 78.7078,56.3091 76.7078,56.8091 74.5,57C 75.3802,58.3561 75.7135,59.8561 75.5,61.5C 80.4583,60.2917 85.4583,59.2917 90.5,58.5C 91.5,58.5 92.5,58.5 93.5,58.5C 93.5,59.8333 93.5,61.1667 93.5,62.5C 89.2984,62.1832 85.2984,62.5166 81.5,63.5C 80.5,63.5 79.5,63.5 78.5,63.5C 73.3595,62.5119 68.0262,62.1786 62.5,62.5C 63.9599,60.5372 65.6266,58.7038 67.5,57C 66.2068,56.51 64.8734,56.3433 63.5,56.5 Z"/></g>
<g><path style="opacity:1" fill="#494e42" d="M 55.5,62.5 C 54.8333,62.5 54.5,62.8333 54.5,63.5C 53.0413,63.5674 51.7079,63.2341 50.5,62.5C 47.7814,62.3975 45.1147,62.7308 42.5,63.5C 41.263,63.4435 40.263,62.9435 39.5,62C 40.676,60.0858 41.676,60.2524 42.5,62.5C 43.8333,61.8333 45.1667,61.1667 46.5,60.5C 48.1667,61.8333 49.8333,61.8333 51.5,60.5C 53.0255,60.9943 54.3588,61.661 55.5,62.5 Z"/></g>
<g><path style="opacity:0.792" fill="#2e2c28" d="M 21.5,61.5 C 19.4484,63.9758 19.1151,66.6424 20.5,69.5C 19.5416,69.0472 18.7083,68.3805 18,67.5C 15.6194,68.435 13.1194,68.7683 10.5,68.5C 9.77842,68.0825 9.27842,67.4158 9,66.5C 8.2917,67.3805 7.45837,68.0472 6.5,68.5C 6.5,68.1667 6.5,67.8333 6.5,67.5C 10.1906,62.6418 15.1906,60.6418 21.5,61.5 Z"/></g>
<g><path style="opacity:1" fill="#606251" d="M 91.5,56.5 C 92.4959,56.4142 93.3292,56.7476 94,57.5C 94.4955,59.4727 94.6621,61.4727 94.5,63.5C 98.4764,62.7048 102.476,62.0381 106.5,61.5C 106.5,61.8333 106.5,62.1667 106.5,62.5C 105.833,62.5 105.5,62.8333 105.5,63.5C 102.751,63.2739 100.084,63.6072 97.5,64.5C 96.8302,66.2914 96.1635,67.9581 95.5,69.5C 95.5,67.8333 95.5,66.1667 95.5,64.5C 94.1667,64.5 92.8333,64.5 91.5,64.5C 89.9582,63.6993 88.2915,63.366 86.5,63.5C 84.8333,63.5 83.1667,63.5 81.5,63.5C 85.2984,62.5166 89.2984,62.1832 93.5,62.5C 93.5,61.1667 93.5,59.8333 93.5,58.5C 92.5,58.5 91.5,58.5 90.5,58.5C 90.8333,57.8333 91.1667,57.1667 91.5,56.5 Z"/></g>
<g><path style="opacity:1" fill="#aabb89" d="M 11.5,63.5 C 13.8568,63.3367 16.1902,63.5034 18.5,64C 16.2824,66.5094 13.6157,67.0094 10.5,65.5C 10.8627,64.8165 11.1961,64.1499 11.5,63.5 Z"/></g>
<g><path style="opacity:1" fill="#ccdaa2" d="M 60.5,63.5 C 63.0593,63.1984 65.3926,63.5318 67.5,64.5C 64.997,65.3705 62.3303,66.0372 59.5,66.5C 59.5569,65.391 59.8902,64.391 60.5,63.5 Z"/></g>
<g><path style="opacity:1" fill="#a4a788" d="M 86.5,63.5 C 88.2915,63.366 89.9582,63.6993 91.5,64.5C 90.6493,66.8816 89.316,68.8816 87.5,70.5C 87.8769,68.742 88.5435,67.0754 89.5,65.5C 88.3984,64.8243 87.3984,64.1577 86.5,63.5 Z"/></g>
<g><path style="opacity:1" fill="#f9f9ca" d="M 105.5,63.5 C 106.55,63.9046 106.55,64.5712 105.5,65.5C 107.299,66.7879 108.965,66.7879 110.5,65.5C 112.735,65.2053 114.735,65.5386 116.5,66.5C 109.548,68.3731 102.548,70.0397 95.5,71.5C 95.5,70.8333 95.5,70.1667 95.5,69.5C 96.1635,67.9581 96.8302,66.2914 97.5,64.5C 100.084,63.6072 102.751,63.2739 105.5,63.5 Z"/></g>
<g><path style="opacity:1" fill="#cedda2" d="M 39.5,57.5 C 39.8333,57.5 40.1667,57.5 40.5,57.5C 40.9382,57.4346 41.2716,57.6012 41.5,58C 39.6487,59.6837 37.982,61.5171 36.5,63.5C 37.0253,64.1924 37.6919,64.6924 38.5,65C 42.7409,65.0296 46.7409,64.1962 50.5,62.5C 51.7079,63.2341 53.0413,63.5674 54.5,63.5C 54.5,63.8333 54.5,64.1667 54.5,64.5C 53.7109,64.7828 53.0442,65.2828 52.5,66C 46.8431,66.4994 41.1764,66.6661 35.5,66.5C 34.9285,64.64 34.9285,62.9733 35.5,61.5C 37.1667,60.5 38.5,59.1667 39.5,57.5 Z"/></g>
<g><path style="opacity:1" fill="#deeca7" d="M 78.5,63.5 C 79.5,63.5 80.5,63.5 81.5,63.5C 83.1667,63.5 84.8333,63.5 86.5,63.5C 87.3984,64.1577 88.3984,64.8243 89.5,65.5C 88.5435,67.0754 87.8769,68.742 87.5,70.5C 87.3893,71.1174 87.056,71.6174 86.5,72C 84.1902,72.4966 81.8568,72.6633 79.5,72.5C 80.4293,71.6851 81.4293,70.8518 82.5,70C 80.8374,69.7351 79.3374,70.2351 78,71.5C 77.51,70.2068 77.3433,68.8734 77.5,67.5C 77.4326,66.0413 77.7659,64.7079 78.5,63.5 Z"/></g>
<g><path style="opacity:1" fill="#c5c8a0" d="M 105.5,63.5 C 105.5,62.8333 105.833,62.5 106.5,62.5C 108.71,62.5137 111.044,62.8471 113.5,63.5C 112.398,64.1757 111.398,64.8423 110.5,65.5C 108.965,66.7879 107.299,66.7879 105.5,65.5C 106.55,64.5712 106.55,63.9046 105.5,63.5 Z"/></g>
<g><path style="opacity:1" fill="#7c8868" d="M 67.5,64.5 C 68.7736,65.1894 68.7736,66.0228 67.5,67C 64.633,67.8007 61.9664,67.6341 59.5,66.5C 62.3303,66.0372 64.997,65.3705 67.5,64.5 Z"/></g>
<g><path style="opacity:1" fill="#f3f7bf" d="M 91.5,64.5 C 92.8333,64.5 94.1667,64.5 95.5,64.5C 95.5,66.1667 95.5,67.8333 95.5,69.5C 95.5,70.1667 95.5,70.8333 95.5,71.5C 93.8333,72.1667 92.1667,72.8333 90.5,73.5C 86.8333,73.5 83.1667,73.5 79.5,73.5C 79.5,73.1667 79.5,72.8333 79.5,72.5C 81.8568,72.6633 84.1902,72.4966 86.5,72C 87.056,71.6174 87.3893,71.1174 87.5,70.5C 89.316,68.8816 90.6493,66.8816 91.5,64.5 Z"/></g>
<g><path style="opacity:1" fill="#7d7f6c" d="M 35.5,61.5 C 34.9285,62.9733 34.9285,64.64 35.5,66.5C 41.1764,66.6661 46.8431,66.4994 52.5,66C 53.0442,65.2828 53.7109,64.7828 54.5,64.5C 55.2389,64.369 55.9056,64.5357 56.5,65C 54.9392,67.7306 52.6059,68.8972 49.5,68.5C 44.7853,66.9308 40.2853,67.2641 36,69.5C 33.846,68.7699 31.6794,68.1032 29.5,67.5C 29.8333,66.8333 30.1667,66.1667 30.5,65.5C 31.6266,64.8783 32.6266,64.045 33.5,63C 31.5,62.6667 29.5,62.3333 27.5,62C 29.7501,61.3892 31.4168,60.0559 32.5,58C 38.4781,57.2288 38.8114,57.8955 33.5,60C 34.0442,60.7172 34.7109,61.2172 35.5,61.5 Z"/></g>
<g><path style="opacity:1" fill="#3c3e35" d="M 60.5,63.5 C 60.5,63.1667 60.5,62.8333 60.5,62.5C 61.1667,62.5 61.8333,62.5 62.5,62.5C 68.0262,62.1786 73.3595,62.5119 78.5,63.5C 75.5,63.5 72.5,63.5 69.5,63.5C 69.822,65.7224 69.1554,67.5557 67.5,69C 63.8513,69.963 60.518,69.463 57.5,67.5C 57.1667,67.5 56.8333,67.5 56.5,67.5C 56.8333,66.5 57.5,65.8333 58.5,65.5C 58.5,66.1667 58.8333,66.5 59.5,66.5C 61.9664,67.6341 64.633,67.8007 67.5,67C 68.7736,66.0228 68.7736,65.1894 67.5,64.5C 65.3926,63.5318 63.0593,63.1984 60.5,63.5 Z"/></g>
<g><path style="opacity:1" fill="#514948" d="M 21.5,61.5 C 24.8078,60.9738 26.9745,62.3072 28,65.5C 28.9772,64.2264 29.8106,64.2264 30.5,65.5C 30.1667,66.1667 29.8333,66.8333 29.5,67.5C 28.1667,68.1667 27.1667,69.1667 26.5,70.5C 24.2646,70.7947 22.2646,70.4614 20.5,69.5C 19.1151,66.6424 19.4484,63.9758 21.5,61.5 Z"/></g>
<g><path style="opacity:1" fill="#bdca99" d="M 10.5,68.5 C 11.6085,69.29 12.9419,69.79 14.5,70C 11.0418,71.4155 7.37513,71.9155 3.5,71.5C 4.16667,70.1667 5.16667,69.1667 6.5,68.5C 7.45837,68.0472 8.2917,67.3805 9,66.5C 9.27842,67.4158 9.77842,68.0825 10.5,68.5 Z"/></g>
<g><path style="opacity:1" fill="#d4dea9" d="M 55.5,62.5 C 57.1898,62.8564 58.1898,63.8564 58.5,65.5C 57.5,65.8333 56.8333,66.5 56.5,67.5C 55.1667,68.5 53.8333,69.5 52.5,70.5C 43.8333,70.5 35.1667,70.5 26.5,70.5C 27.1667,69.1667 28.1667,68.1667 29.5,67.5C 31.6794,68.1032 33.846,68.7699 36,69.5C 40.2853,67.2641 44.7853,66.9308 49.5,68.5C 52.6059,68.8972 54.9392,67.7306 56.5,65C 55.9056,64.5357 55.2389,64.369 54.5,64.5C 54.5,64.1667 54.5,63.8333 54.5,63.5C 54.5,62.8333 54.8333,62.5 55.5,62.5 Z"/></g>
<g><path style="opacity:1" fill="#d3dfa4" d="M 78.5,63.5 C 77.7659,64.7079 77.4326,66.0413 77.5,67.5C 76.7148,69.3736 76.0482,71.3736 75.5,73.5C 74.5,74.1667 73.5,74.8333 72.5,75.5C 66.5126,72.4093 60.1793,71.4093 53.5,72.5C 54.8333,70.8333 56.1667,69.1667 57.5,67.5C 60.518,69.463 63.8513,69.963 67.5,69C 69.1554,67.5557 69.822,65.7224 69.5,63.5C 72.5,63.5 75.5,63.5 78.5,63.5 Z"/></g>
<g><path style="opacity:1" fill="#56554a" d="M 20.5,69.5 C 22.2646,70.4614 24.2646,70.7947 26.5,70.5C 26.5,70.8333 26.5,71.1667 26.5,71.5C 25.8333,72.1667 25.1667,72.8333 24.5,73.5C 21.8563,73.2847 19.523,73.2847 17.5,73.5C 12.7844,73.2831 7.95107,73.6165 3,74.5C 2.25988,73.2506 2.42654,72.2506 3.5,71.5C 7.37513,71.9155 11.0418,71.4155 14.5,70C 12.9419,69.79 11.6085,69.29 10.5,68.5C 13.1194,68.7683 15.6194,68.435 18,67.5C 18.7083,68.3805 19.5416,69.0472 20.5,69.5 Z"/></g>
<g><path style="opacity:1" fill="#787f66" d="M 26.5,71.5 C 26.5,71.1667 26.5,70.8333 26.5,70.5C 35.1667,70.5 43.8333,70.5 52.5,70.5C 52.3893,71.1174 52.056,71.6174 51.5,72C 43.0881,72.801 34.7548,72.6344 26.5,71.5 Z"/></g>
<g><path style="opacity:1" fill="#b1b492" d="M 77.5,67.5 C 77.3433,68.8734 77.51,70.2068 78,71.5C 79.3374,70.2351 80.8374,69.7351 82.5,70C 81.4293,70.8518 80.4293,71.6851 79.5,72.5C 79.5,72.8333 79.5,73.1667 79.5,73.5C 78.1667,73.5 76.8333,73.5 75.5,73.5C 76.0482,71.3736 76.7148,69.3736 77.5,67.5 Z"/></g>
<g><path style="opacity:1" fill="#414437" d="M 56.5,67.5 C 56.8333,67.5 57.1667,67.5 57.5,67.5C 56.1667,69.1667 54.8333,70.8333 53.5,72.5C 53.5,73.5 53.5,74.5 53.5,75.5C 52.391,75.4431 51.391,75.1098 50.5,74.5C 43.3524,73.5084 36.0191,73.175 28.5,73.5C 27.1667,73.5 25.8333,73.5 24.5,73.5C 25.1667,72.8333 25.8333,72.1667 26.5,71.5C 34.7548,72.6344 43.0881,72.801 51.5,72C 52.056,71.6174 52.3893,71.1174 52.5,70.5C 53.8333,69.5 55.1667,68.5 56.5,67.5 Z"/></g>
<g><path style="opacity:1" fill="#6a685a" d="M 72.5,75.5 C 71.791,76.404 70.791,76.7373 69.5,76.5C 69.0472,75.5416 68.3805,74.7083 67.5,74C 62.5431,72.9656 57.8764,73.4656 53.5,75.5C 53.5,74.5 53.5,73.5 53.5,72.5C 60.1793,71.4093 66.5126,72.4093 72.5,75.5 Z"/></g>
<g><path style="opacity:1" fill="#4f4848" d="M 75.5,73.5 C 76.8333,73.5 78.1667,73.5 79.5,73.5C 83.1667,73.5 86.8333,73.5 90.5,73.5C 90.5,74.1667 90.5,74.8333 90.5,75.5C 89.5752,79.4453 88.4085,79.4453 87,75.5C 85.5787,79.2644 84.0787,79.2644 82.5,75.5C 79.9242,75.4679 77.5909,76.1346 75.5,77.5C 74.0755,75.9689 73.4088,76.3023 73.5,78.5C 71.9731,78.427 70.9731,79.0937 70.5,80.5C 70.1667,80.5 69.8333,80.5 69.5,80.5C 69.6716,79.5084 69.3382,78.8417 68.5,78.5C 64.0181,77.6745 59.3514,77.1745 54.5,77C 56.116,75.9229 57.9493,75.4229 60,75.5C 63.1671,75.9008 66.3337,76.2341 69.5,76.5C 70.791,76.7373 71.791,76.404 72.5,75.5C 73.5,74.8333 74.5,74.1667 75.5,73.5 Z"/></g>
<g><path style="opacity:1" fill="#564f4f" d="M 116.5,66.5 C 116.833,67.1667 117.167,67.8333 117.5,68.5C 116.209,68.2627 115.209,68.596 114.5,69.5C 113.631,71.717 113.298,74.0504 113.5,76.5C 112.609,77.1098 111.609,77.4431 110.5,77.5C 112.804,75.2966 112.97,72.9633 111,70.5C 110.374,72.9913 109.541,72.9913 108.5,70.5C 107.833,71.5 107.167,72.5 106.5,73.5C 105.808,72.9747 105.308,72.3081 105,71.5C 104.418,74.6677 103.418,75.001 102,72.5C 101.167,73.5 100.333,74.5 99.5,75.5C 98.8076,74.9747 98.3076,74.3081 98,73.5C 97.7508,74.624 97.2508,75.624 96.5,76.5C 93.1635,72.2237 91.9968,72.557 93,77.5C 92.2917,76.6195 91.4584,75.9528 90.5,75.5C 90.5,74.8333 90.5,74.1667 90.5,73.5C 92.1667,72.8333 93.8333,72.1667 95.5,71.5C 102.548,70.0397 109.548,68.3731 116.5,66.5 Z"/></g>
<g><path style="opacity:1" fill="#b57547" d="M 114.5,69.5 C 116.441,71.0106 116.941,73.0106 116,75.5C 115.329,76.2524 114.496,76.5858 113.5,76.5C 113.298,74.0504 113.631,71.717 114.5,69.5 Z"/></g>
<g><path style="opacity:1" fill="#9ca383" d="M 28.5,73.5 C 36.0191,73.175 43.3524,73.5084 50.5,74.5C 49.0998,75.1001 48.0998,76.1001 47.5,77.5C 46.7109,77.2172 46.0442,76.7172 45.5,76C 39.2511,75.1913 33.0844,75.358 27,76.5C 26.7613,75.212 27.2613,74.212 28.5,73.5 Z"/></g>
<g><path style="opacity:1" fill="#261d21" d="M 69.5,76.5 C 66.3337,76.2341 63.1671,75.9008 60,75.5C 57.9493,75.4229 56.116,75.9229 54.5,77C 59.3514,77.1745 64.0181,77.6745 68.5,78.5C 64.3998,78.2367 60.3998,78.5701 56.5,79.5C 55.791,78.596 54.791,78.2627 53.5,78.5C 53.5,77.5 53.5,76.5 53.5,75.5C 57.8764,73.4656 62.5431,72.9656 67.5,74C 68.3805,74.7083 69.0472,75.5416 69.5,76.5 Z"/></g>
<g><path style="opacity:1" fill="#a1bb82" d="M 24.5,73.5 C 25.8333,73.5 27.1667,73.5 28.5,73.5C 27.2613,74.212 26.7613,75.212 27,76.5C 33.0844,75.358 39.2511,75.1913 45.5,76C 46.0442,76.7172 46.7109,77.2172 47.5,77.5C 47.7373,78.791 47.404,79.791 46.5,80.5C 39.825,80.6663 33.1583,80.4996 26.5,80C 24.6503,77.9672 23.9836,77.9672 24.5,80C 23.552,80.4828 22.552,80.6495 21.5,80.5C 20.2719,79.6935 19.2719,78.6935 18.5,77.5C 18.1667,76.1667 17.8333,74.8333 17.5,73.5C 19.523,73.2847 21.8563,73.2847 24.5,73.5 Z"/></g>
<g><path style="opacity:1" fill="#2a1e24" d="M 114.5,69.5 C 115.209,68.596 116.209,68.2627 117.5,68.5C 118.36,71.9864 117.693,75.3197 115.5,78.5C 116.55,80.1017 115.883,80.935 113.5,81C 113.833,81.3333 114.167,81.6667 114.5,82C 112.114,82.2835 111.448,83.2835 112.5,85C 111.264,86.0848 109.931,86.9181 108.5,87.5C 110.586,84.3215 110.92,80.9882 109.5,77.5C 109.833,77.5 110.167,77.5 110.5,77.5C 111.609,77.4431 112.609,77.1098 113.5,76.5C 114.496,76.5858 115.329,76.2524 116,75.5C 116.941,73.0106 116.441,71.0106 114.5,69.5 Z"/></g>
<g><path style="opacity:1" fill="#7d8b69" d="M 50.5,74.5 C 51.391,75.1098 52.391,75.4431 53.5,75.5C 53.5,76.5 53.5,77.5 53.5,78.5C 52.5386,80.2646 52.2053,82.2646 52.5,84.5C 50.1667,84.5 47.8333,84.5 45.5,84.5C 37.6484,84.8254 29.9818,84.492 22.5,83.5C 28.8421,83.6662 35.1754,83.4995 41.5,83C 36.5,82.6667 31.5,82.3333 26.5,82C 33.346,81.8283 40.0126,81.3283 46.5,80.5C 47.404,79.791 47.7373,78.791 47.5,77.5C 48.0998,76.1001 49.0998,75.1001 50.5,74.5 Z"/></g>
<g><path style="opacity:1" fill="#2a1d24" d="M 82.5,75.5 C 82.4257,77.4109 81.4257,78.5776 79.5,79C 83.1027,78.8178 86.7694,79.3178 90.5,80.5C 90.1667,81.5 89.5,82.1667 88.5,82.5C 85.4002,80.7572 83.5668,81.7572 83,85.5C 82.6232,84.0577 81.7899,83.0577 80.5,82.5C 79.4583,81.2089 78.2917,81.2089 77,82.5C 76.3923,80.8455 75.8923,79.1789 75.5,77.5C 77.5909,76.1346 79.9242,75.4679 82.5,75.5 Z"/></g>
<g><path style="opacity:1" fill="#251720" d="M 110.5,77.5 C 110.167,77.5 109.833,77.5 109.5,77.5C 108.903,76.8614 108.07,76.528 107,76.5C 105.061,76.9543 103.228,77.621 101.5,78.5C 98.271,77.0068 95.9377,78.0068 94.5,81.5C 93.2638,80.7542 91.9305,80.4208 90.5,80.5C 86.7694,79.3178 83.1027,78.8178 79.5,79C 81.4257,78.5776 82.4257,77.4109 82.5,75.5C 84.0787,79.2644 85.5787,79.2644 87,75.5C 88.4085,79.4453 89.5752,79.4453 90.5,75.5C 91.4584,75.9528 92.2917,76.6195 93,77.5C 91.9968,72.557 93.1635,72.2237 96.5,76.5C 97.2508,75.624 97.7508,74.624 98,73.5C 98.3076,74.3081 98.8076,74.9747 99.5,75.5C 100.333,74.5 101.167,73.5 102,72.5C 103.418,75.001 104.418,74.6677 105,71.5C 105.308,72.3081 105.808,72.9747 106.5,73.5C 107.167,72.5 107.833,71.5 108.5,70.5C 109.541,72.9913 110.374,72.9913 111,70.5C 112.97,72.9633 112.804,75.2966 110.5,77.5 Z"/></g>
<g><path style="opacity:1" fill="#272123" d="M 6.5,67.5 C 6.5,67.8333 6.5,68.1667 6.5,68.5C 5.16667,69.1667 4.16667,70.1667 3.5,71.5C 2.42654,72.2506 2.25988,73.2506 3,74.5C 7.95107,73.6165 12.7844,73.2831 17.5,73.5C 17.8333,74.8333 18.1667,76.1667 18.5,77.5C 17.8333,77.5 17.5,77.8333 17.5,78.5C 17.448,80.9029 17.7814,83.2362 18.5,85.5C 17.8333,85.1667 17.1667,84.8333 16.5,84.5C 14.4467,83.3101 12.1134,82.6434 9.5,82.5C 7.30352,82.5046 5.30352,82.838 3.5,83.5C 3.5,84.1667 3.5,84.8333 3.5,85.5C 2.77842,85.0825 2.27842,84.4158 2,83.5C 1.76182,79.7778 1.26182,76.1111 0.5,72.5C 1.9308,70.0623 3.9308,68.3956 6.5,67.5 Z"/></g>
<g><path style="opacity:1" fill="#898282" d="M 14.5,78.5 C 14.8333,78.5 15.1667,78.5 15.5,78.5C 15.5858,79.4959 15.2524,80.3292 14.5,81C 10.5138,81.4988 6.51383,81.6655 2.5,81.5C 2.5,80.5 2.5,79.5 2.5,78.5C 6.5,78.5 10.5,78.5 14.5,78.5 Z"/></g>
<g><path style="opacity:1" fill="#635c61" d="M 15.5,78.5 C 15.1667,78.5 14.8333,78.5 14.5,78.5C 13.828,77.7326 12.9947,77.0659 12,76.5C 9.42905,77.2453 6.92905,77.5787 4.5,77.5C 4.16667,77.1667 3.83333,76.8333 3.5,76.5C 7.45894,75.3401 11.4589,75.1735 15.5,76C 16.5981,76.7697 16.5981,77.603 15.5,78.5 Z"/></g>
<g><path style="opacity:1" fill="#80936b" d="M 46.5,80.5 C 40.0126,81.3283 33.346,81.8283 26.5,82C 31.5,82.3333 36.5,82.6667 41.5,83C 35.1754,83.4995 28.8421,83.6662 22.5,83.5C 21.8902,82.609 21.5569,81.609 21.5,80.5C 22.552,80.6495 23.552,80.4828 24.5,80C 23.9836,77.9672 24.6503,77.9672 26.5,80C 33.1583,80.4996 39.825,80.6663 46.5,80.5 Z"/></g>
<g><path style="opacity:1" fill="#696254" d="M 109.5,77.5 C 110.92,80.9882 110.586,84.3215 108.5,87.5C 105.163,86.516 103.663,84.1827 104,80.5C 103.902,83.5224 103.068,86.1891 101.5,88.5C 100.833,88.5 100.167,88.5 99.5,88.5C 100.767,85.728 100.767,83.0613 99.5,80.5C 100.167,79.8333 100.833,79.1667 101.5,78.5C 103.228,77.621 105.061,76.9543 107,76.5C 108.07,76.528 108.903,76.8614 109.5,77.5 Z"/></g>
<g><path style="opacity:1" fill="#ca9459" d="M 105.5,79.5 C 106.5,79.5 107.5,79.5 108.5,79.5C 107.5,87.5 106.5,87.5 105.5,79.5 Z"/></g>
<g><path style="opacity:1" fill="#7a8368" d="M 17.5,78.5 C 19.1662,80.1868 20.4995,82.1868 21.5,84.5C 21.0431,85.2975 20.3764,85.6309 19.5,85.5C 19.1667,85.5 18.8333,85.5 18.5,85.5C 17.7814,83.2362 17.448,80.9029 17.5,78.5 Z"/></g>
<g><path style="opacity:1" fill="#696361" d="M 3.5,83.5 C 5.30352,82.838 7.30352,82.5046 9.5,82.5C 12.1134,82.6434 14.4467,83.3101 16.5,84.5C 15.1286,85.7868 13.2953,86.4535 11,86.5C 9.16667,86.3333 7.33333,86.1667 5.5,86C 4.93406,85.0053 4.26739,84.172 3.5,83.5 Z"/></g>
<g><path style="opacity:1" fill="#524b49" d="M 53.5,78.5 C 54.791,78.2627 55.791,78.596 56.5,79.5C 55.5,79.5 54.5,79.5 53.5,79.5C 53.5,80.5 53.5,81.5 53.5,82.5C 59.1348,83.0366 64.4682,82.3699 69.5,80.5C 69.8333,80.5 70.1667,80.5 70.5,80.5C 70.2011,82.604 70.5344,84.604 71.5,86.5C 73.2289,84.1489 73.8956,81.4822 73.5,78.5C 74.7757,81.0303 74.7757,83.6969 73.5,86.5C 73.8457,87.6956 74.3457,87.6956 75,86.5C 75.4828,87.448 75.6495,88.448 75.5,89.5C 74.2921,88.7659 72.9587,88.4326 71.5,88.5C 70.8826,88.3893 70.3826,88.056 70,87.5C 66.981,89.0574 63.8144,90.0574 60.5,90.5C 59.0222,90.762 57.6888,90.4287 56.5,89.5C 57.0253,88.8076 57.6919,88.3076 58.5,88C 54.461,85.9496 50.1277,85.1163 45.5,85.5C 45.5,85.1667 45.5,84.8333 45.5,84.5C 47.8333,84.5 50.1667,84.5 52.5,84.5C 52.2053,82.2646 52.5386,80.2646 53.5,78.5 Z"/></g>
<g><path style="opacity:1" fill="#d89a5a" d="M 73.5,78.5 C 73.8956,81.4822 73.2289,84.1489 71.5,86.5C 70.5344,84.604 70.2011,82.604 70.5,80.5C 70.9731,79.0937 71.9731,78.427 73.5,78.5 Z"/></g>
<g><path style="opacity:1" fill="#888080" d="M 68.5,78.5 C 69.3382,78.8417 69.6716,79.5084 69.5,80.5C 64.4682,82.3699 59.1348,83.0366 53.5,82.5C 53.5,81.5 53.5,80.5 53.5,79.5C 54.5,79.5 55.5,79.5 56.5,79.5C 60.3998,78.5701 64.3998,78.2367 68.5,78.5 Z"/></g>
<g><path style="opacity:1" fill="#de9f59" d="M 99.5,80.5 C 100.767,83.0613 100.767,85.728 99.5,88.5C 97.1104,88.3152 96.1104,86.9818 96.5,84.5C 96.1104,82.0182 97.1104,80.6848 99.5,80.5 Z"/></g>
<g><path style="opacity:1" fill="#4c494a" d="M 117.5,68.5 C 118.167,68.8333 118.833,69.1667 119.5,69.5C 119.5,72.5 119.5,75.5 119.5,78.5C 116.878,82.4572 113.878,86.1239 110.5,89.5C 109.167,89.5 108.5,88.8333 108.5,87.5C 109.931,86.9181 111.264,86.0848 112.5,85C 111.448,83.2835 112.114,82.2835 114.5,82C 114.167,81.6667 113.833,81.3333 113.5,81C 115.883,80.935 116.55,80.1017 115.5,78.5C 117.693,75.3197 118.36,71.9864 117.5,68.5 Z"/></g>
<g><path style="opacity:1" fill="#8e907d" d="M 75.5,77.5 C 75.8923,79.1789 76.3923,80.8455 77,82.5C 78.2917,81.2089 79.4583,81.2089 80.5,82.5C 79.5084,82.3284 78.8417,82.6618 78.5,83.5C 75.9405,86.2435 75.9405,88.9102 78.5,91.5C 78.8417,92.3382 79.5084,92.6716 80.5,92.5C 80.5,93.1667 80.1667,93.5 79.5,93.5C 78.8333,93.5 78.1667,93.5 77.5,93.5C 75.8958,92.713 75.2291,91.3797 75.5,89.5C 75.6495,88.448 75.4828,87.448 75,86.5C 74.3457,87.6956 73.8457,87.6956 73.5,86.5C 74.7757,83.6969 74.7757,81.0303 73.5,78.5C 73.4088,76.3023 74.0755,75.9689 75.5,77.5 Z"/></g>
<g><path style="opacity:1" fill="#cc9254" d="M 78.5,83.5 C 81.1667,86.1667 81.1667,88.8333 78.5,91.5C 75.9405,88.9102 75.9405,86.2435 78.5,83.5 Z"/></g>
<g><path style="opacity:1" fill="#837e6b" d="M 101.5,78.5 C 100.833,79.1667 100.167,79.8333 99.5,80.5C 97.1104,80.6848 96.1104,82.0182 96.5,84.5C 96.1104,86.9818 97.1104,88.3152 99.5,88.5C 100.167,88.5 100.833,88.5 101.5,88.5C 101.167,89.1667 100.833,89.8333 100.5,90.5C 97.7081,90.5479 95.8747,89.2146 95,86.5C 93.8495,90.694 91.0162,92.694 86.5,92.5C 84.5749,92.4096 83.4083,91.4096 83,89.5C 82.6174,90.056 82.1174,90.3893 81.5,90.5C 81.5987,87.7628 81.2653,85.0961 80.5,82.5C 81.7899,83.0577 82.6232,84.0577 83,85.5C 83.5668,81.7572 85.4002,80.7572 88.5,82.5C 89.5,82.1667 90.1667,81.5 90.5,80.5C 91.9305,80.4208 93.2638,80.7542 94.5,81.5C 95.9377,78.0068 98.271,77.0068 101.5,78.5 Z"/></g>
<g><path style="opacity:1" fill="#d69a59" d="M 90.5,82.5 C 92.9398,84.5726 93.1065,86.906 91,89.5C 90.5034,87.1902 90.3367,84.8568 90.5,82.5 Z"/></g>
<g><path style="opacity:1" fill="#413229" d="M 85.5,83.5 C 86.209,82.596 87.209,82.2627 88.5,82.5C 90.0322,85.5422 89.6989,88.3756 87.5,91C 86.5632,91.6917 85.8966,91.525 85.5,90.5C 86.9931,89.6879 87.6598,88.3545 87.5,86.5C 87.3601,84.9704 86.6935,83.9704 85.5,83.5 Z"/></g>
<g><path style="opacity:0.094" fill="#252123" d="M 3.5,83.5 C 4.26739,84.172 4.93406,85.0053 5.5,86C 7.33333,86.1667 9.16667,86.3333 11,86.5C 13.2953,86.4535 15.1286,85.7868 16.5,84.5C 17.1667,84.8333 17.8333,85.1667 18.5,85.5C 18.8333,85.5 19.1667,85.5 19.5,85.5C 19.9175,86.2216 20.5842,86.7216 21.5,87C 20.6195,87.7083 19.9528,88.5416 19.5,89.5C 18.7321,88.7375 18.2321,87.7375 18,86.5C 14.2546,87.297 10.4213,87.797 6.5,88C 7.83333,88.3333 9.16667,88.6667 10.5,89C 9.83333,89.3333 9.16667,89.6667 8.5,90C 10.5,90.5 12.5,91 14.5,91.5C 15.6473,91.1822 16.4806,90.5156 17,89.5C 17.4169,90.756 18.2502,91.4226 19.5,91.5C 20.3065,92.7281 21.3065,93.7281 22.5,94.5C 13.9279,95.8803 7.59453,92.8803 3.5,85.5C 3.5,84.8333 3.5,84.1667 3.5,83.5 Z"/></g>
<g><path style="opacity:1" fill="#261621" d="M 39.5,89.5 C 39.5,90.5 39.5,91.5 39.5,92.5C 39.1667,92.5 38.8333,92.5 38.5,92.5C 36.1917,92.0862 33.8583,91.7529 31.5,91.5C 29.6803,91.6493 28.1803,92.3159 27,93.5C 26.5,92.3333 25.6667,91.5 24.5,91C 28.3135,89.2131 32.3135,88.0464 36.5,87.5C 37.5178,88.1925 38.5178,88.8592 39.5,89.5 Z"/></g>
<g><path style="opacity:1" fill="#2b2427" d="M 108.5,87.5 C 108.5,88.8333 109.167,89.5 110.5,89.5C 109.486,90.6737 108.153,91.3404 106.5,91.5C 108.054,90.1054 107.721,89.4387 105.5,89.5C 103.865,90.0463 102.199,90.3796 100.5,90.5C 100.833,89.8333 101.167,89.1667 101.5,88.5C 103.068,86.1891 103.902,83.5224 104,80.5C 103.663,84.1827 105.163,86.516 108.5,87.5 Z"/></g>
<g><path style="opacity:1" fill="#30252a" d="M 17.5,78.5 C 17.5,77.8333 17.8333,77.5 18.5,77.5C 19.2719,78.6935 20.2719,79.6935 21.5,80.5C 21.5569,81.609 21.8902,82.609 22.5,83.5C 29.9818,84.492 37.6484,84.8254 45.5,84.5C 45.5,84.8333 45.5,85.1667 45.5,85.5C 44.3176,88.0092 42.3176,89.3426 39.5,89.5C 38.5178,88.8592 37.5178,88.1925 36.5,87.5C 32.3135,88.0464 28.3135,89.2131 24.5,91C 25.6667,91.5 26.5,92.3333 27,93.5C 28.1803,92.3159 29.6803,91.6493 31.5,91.5C 33.8583,91.7529 36.1917,92.0862 38.5,92.5C 33.4174,94.0784 28.084,94.7451 22.5,94.5C 21.3065,93.7281 20.3065,92.7281 19.5,91.5C 19.5,90.8333 19.5,90.1667 19.5,89.5C 19.9528,88.5416 20.6195,87.7083 21.5,87C 20.5842,86.7216 19.9175,86.2216 19.5,85.5C 20.3764,85.6309 21.0431,85.2975 21.5,84.5C 20.4995,82.1868 19.1662,80.1868 17.5,78.5 Z"/></g>
<g><path style="opacity:1" fill="#db9e5a" d="M 85.5,83.5 C 86.6935,83.9704 87.3601,84.9704 87.5,86.5C 87.6598,88.3545 86.9931,89.6879 85.5,90.5C 84.2437,88.2743 84.2437,85.941 85.5,83.5 Z"/></g>
<g><path style="opacity:1" fill="#6c6768" d="M 19.5,89.5 C 19.5,90.1667 19.5,90.8333 19.5,91.5C 18.2502,91.4226 17.4169,90.756 17,89.5C 16.4806,90.5156 15.6473,91.1822 14.5,91.5C 12.5,91 10.5,90.5 8.5,90C 9.16667,89.6667 9.83333,89.3333 10.5,89C 9.16667,88.6667 7.83333,88.3333 6.5,88C 10.4213,87.797 14.2546,87.297 18,86.5C 18.2321,87.7375 18.7321,88.7375 19.5,89.5 Z"/></g>
<g><path style="opacity:0.787" fill="#241a21" d="M 45.5,85.5 C 50.1277,85.1163 54.461,85.9496 58.5,88C 57.6919,88.3076 57.0253,88.8076 56.5,89.5C 57.6888,90.4287 59.0222,90.762 60.5,90.5C 60.9382,90.4346 61.2716,90.6012 61.5,91C 59.8807,91.2355 58.8807,92.0689 58.5,93.5C 57.1434,92.3146 55.6434,91.3146 54,90.5C 49.2238,91.5871 44.3905,92.2537 39.5,92.5C 39.5,91.5 39.5,90.5 39.5,89.5C 42.3176,89.3426 44.3176,88.0092 45.5,85.5 Z"/></g>
<g><path style="opacity:1" fill="#211d1e" d="M 100.5,90.5 C 100.369,91.2389 100.536,91.9056 101,92.5C 102.699,91.5939 104.533,91.2606 106.5,91.5C 100.442,93.5703 94.1084,94.9037 87.5,95.5C 88.3984,94.8423 89.3984,94.1757 90.5,93.5C 90.3333,93.1667 90.1667,92.8333 90,92.5C 87.0558,93.2566 84.0558,93.9233 81,94.5C 80.2352,94.4301 79.7352,94.0967 79.5,93.5C 80.1667,93.5 80.5,93.1667 80.5,92.5C 81.3382,92.1583 81.6716,91.4916 81.5,90.5C 82.1174,90.3893 82.6174,90.056 83,89.5C 83.4083,91.4096 84.5749,92.4096 86.5,92.5C 91.0162,92.694 93.8495,90.694 95,86.5C 95.8747,89.2146 97.7081,90.5479 100.5,90.5 Z"/></g>
<g><path style="opacity:1" fill="#7a7475" d="M 71.5,88.5 C 70.8836,90.4171 69.5503,91.5838 67.5,92C 69.4335,92.7826 70.9335,92.2826 72,90.5C 73.487,91.2529 73.6537,92.0862 72.5,93C 67.8452,93.4992 63.1785,93.6658 58.5,93.5C 58.8807,92.0689 59.8807,91.2355 61.5,91C 61.2716,90.6012 60.9382,90.4346 60.5,90.5C 63.8144,90.0574 66.981,89.0574 70,87.5C 70.3826,88.056 70.8826,88.3893 71.5,88.5 Z"/></g>
<g><path style="opacity:1" fill="#5a5246" d="M 78.5,83.5 C 78.8417,82.6618 79.5084,82.3284 80.5,82.5C 81.2653,85.0961 81.5987,87.7628 81.5,90.5C 81.6716,91.4916 81.3382,92.1583 80.5,92.5C 79.5084,92.6716 78.8417,92.3382 78.5,91.5C 81.1667,88.8333 81.1667,86.1667 78.5,83.5 Z"/></g>
<g><path style="opacity:0.984" fill="#6a6867" d="M 106.5,91.5 C 104.533,91.2606 102.699,91.5939 101,92.5C 100.536,91.9056 100.369,91.2389 100.5,90.5C 102.199,90.3796 103.865,90.0463 105.5,89.5C 107.721,89.4387 108.054,90.1054 106.5,91.5 Z"/></g>
<g><path style="opacity:1" fill="#7b7776" d="M 94.5,91.5 C 100.911,91.6818 100.744,92.3485 94,93.5C 93.1667,93.3333 92.3333,93.1667 91.5,93C 92.7375,92.7679 93.7375,92.2679 94.5,91.5 Z"/></g>
<g><path style="opacity:0.984" fill="#736f6d" d="M 87.5,95.5 C 87.1667,95.5 86.8333,95.5 86.5,95.5C 83.7814,95.3975 81.1147,95.7308 78.5,96.5C 76.1966,96.1237 75.8632,95.1237 77.5,93.5C 78.1667,93.5 78.8333,93.5 79.5,93.5C 79.7352,94.0967 80.2352,94.4301 81,94.5C 84.0558,93.9233 87.0558,93.2566 90,92.5C 90.1667,92.8333 90.3333,93.1667 90.5,93.5C 89.3984,94.1757 88.3984,94.8423 87.5,95.5 Z"/></g>
<g><path style="opacity:0.745" fill="#393436" d="M 71.5,88.5 C 72.9587,88.4326 74.2921,88.7659 75.5,89.5C 75.2291,91.3797 75.8958,92.713 77.5,93.5C 75.8632,95.1237 76.1966,96.1237 78.5,96.5C 81.1147,95.7308 83.7814,95.3975 86.5,95.5C 85.0484,96.3019 83.3817,96.8019 81.5,97C 75.1667,97.6667 68.8333,97.6667 62.5,97C 60.6763,96.34 59.343,95.1733 58.5,93.5C 63.1785,93.6658 67.8452,93.4992 72.5,93C 73.6537,92.0862 73.487,91.2529 72,90.5C 70.9335,92.2826 69.4335,92.7826 67.5,92C 69.5503,91.5838 70.8836,90.4171 71.5,88.5 Z"/></g>
</svg>
